<svg width="200" height="107" viewBox="0 0 200 107" fill="none" xmlns="http://www.w3.org/2000/svg">
<path fill-rule="evenodd" clip-rule="evenodd" d="M130.657 78.5256C130.676 78.6006 130.695 78.6779 130.715 78.7543L134.174 81.0403C134.17 80.9436 134.158 80.7126 134.137 80.3764L130.657 78.5256ZM59.158 16.8251C59.158 16.8251 59.0661 17.228 58.8851 17.8072C58.5274 18.9511 57.8216 20.7822 56.787 21.5559C55.2285 22.7214 51.2874 28.7269 51.2874 28.7269C51.2874 28.7269 51.5321 30.6325 50.8302 31.0018C50.1284 31.3714 49.0756 31.9258 47.9585 32.031C46.8415 32.1362 44.45 30.6715 44.5407 29.7963C44.6026 29.1997 45.4076 23.8456 45.9472 19.4507C46.1993 17.3966 45.958 15.5521 46.349 14.5006C46.349 14.5006 45.8742 12.6818 46.6028 10.9878C47.3314 9.29387 48.8186 5.20073 49.4497 4.86878C49.9491 4.60585 48.0167 2.68405 48.8112 2.00504C49.1982 1.94772 51.1265 2.1328 52.2159 2.72255C52.4284 0.98297 51.2897 0.246074 51.7745 0.0538655C52.2596 -0.138343 53.9221 0.13457 54.9781 1.68194C54.9781 1.68194 58.2677 0.479634 62.8678 1.26701C70.3015 2.53946 77.6539 1.07765 79.2994 0.142555C79.2994 0.142555 78.1747 4.08883 76.4767 4.46555C76.4767 4.46555 84.5663 4.30955 92.1523 10.0735C92.1523 10.0735 88.1792 9.99312 86.4585 10.5886C86.4585 10.5886 92.8604 13.9072 96.3712 20.5754C96.3712 20.5754 89.7143 14.3974 81.3088 11.2026C81.3088 11.2026 83.4681 9.77724 87.5752 9.21345C87.0574 8.83844 82.0402 6.41644 72.3095 6.40218C72.3095 6.40218 74.6858 4.77895 75.9338 3.30345C67.9956 5.19645 64.7774 3.34395 57.527 2.56741C56.8209 2.62017 56.8403 2.57768 56.2067 2.7639C55.6686 2.92217 55.5434 4.32153 55.0988 4.52458C54.5812 4.76099 53.0592 3.98616 52.7247 4.21316C50.4641 5.74798 49.3162 8.28349 48.893 10.2301C48.6983 11.1264 48.8309 11.8536 49.0011 12.4431C49.6856 12.7111 50.9289 14.3215 51.0935 13.7506C51.0935 13.7506 51.2928 12.7593 52.3907 12.3915C53.4889 12.0236 54.1332 11.8496 54.1332 11.8496C54.1332 11.8496 54.0573 13.0462 53.5212 13.5687C52.859 14.2143 51.5868 15.5007 50.8023 15.9696C50.9161 15.5874 50.9557 15.2943 50.9224 14.9672C50.9138 14.8833 49.083 13.8852 48.5448 14.8936C47.9505 16.0069 48.3005 16.2761 47.9234 18.8051C47.5801 21.109 46.4596 25.7041 46.8831 26.364C46.886 26.342 48.1399 23.0143 49.3941 19.7122C49.3952 20.8324 48.8292 27.564 50.0648 27.7148C50.0648 27.7148 53.3452 22.7465 55.5645 20.5438C57.7837 18.3411 57.2966 19.8386 59.1577 16.8245L59.158 16.8251ZM65.8961 39.3249C67.8216 39.358 71.5475 39.591 74.4372 40.8022C74.4372 40.8022 73.3404 39.37 71.5366 38.3328C70.255 37.5959 67.8116 37.2623 66.1374 37.5047L66.1371 37.5044C65.709 36.9158 65.3577 36.2376 65.4187 35.649C65.6423 33.4951 70.4607 30.3476 72.322 29.2907C72.322 29.2907 70.0135 29.0891 69.1314 29.6212C69.4785 28.8353 70.8582 26.1324 73.1502 25.576C70.2037 18.8313 64.4537 14.4333 64.4537 14.4333C64.4537 14.4333 67.4994 19.4835 68.0138 21.8017C68.4253 23.6562 66.7035 28.7152 65.9985 30.6644H65.9979C65.9979 30.6644 64.3157 22.7482 60.7709 17.9521C60.7709 17.9521 61.195 18.9223 61.5785 20.9091C61.9419 22.7907 62.2687 26.6902 62.1646 30.4357C62.1646 30.4357 59.537 33.2053 58.9735 35.2532C58.41 37.301 60.0668 37.122 60.1016 40.1679C60.1016 40.1679 49.4543 37.6826 48.1447 37.8979C46.8352 38.1129 43.378 40.9835 43.2699 42.0253C43.1619 43.067 42.7099 46.2966 41.9986 47.5101C41.2877 48.7235 38.9478 51.1957 39.9208 54.222C40.2833 55.3496 40.0993 60.337 40.0859 61.6625C40.6315 61.9794 41.3601 62.0963 41.9869 62.1442C42.3366 62.7787 42.3123 63.0801 42.3867 64.5012C42.3867 64.5012 47.5208 66.184 51.6516 62.1887L50.8973 58.3342C50.8973 58.3342 53.3036 56.4603 53.8263 54.8337C54.349 53.2068 53.4621 51.5222 53.7462 50.4899C54.0302 49.4575 56.961 46.9802 56.961 46.9802C56.961 46.9802 62.2678 46.9999 63.9005 48.3197C65.5331 49.6395 67.9049 52.3629 69.5954 52.2728C71.286 52.1827 73.2274 50.5261 73.2274 50.5261C73.2274 50.5261 77.4258 51.8465 78.591 51.7019C79.0179 51.6488 79.4836 50.6493 79.9613 49.3409L82.1312 50.0601C86.4568 51.4931 89.308 51.7906 92.3616 51.9774C91.5794 53.0282 90.7107 54.3132 90.7145 54.8326C90.7213 55.7762 91.7325 57.1382 93.2725 58.4506C94.8127 59.7627 109.567 70.854 110.636 72.8922C111.706 74.9304 111.417 74.9286 111.673 76.2256C112.942 77.5748 114.613 79.3905 116.24 81.1851C116.079 77.9606 115.927 73.1357 116.384 72.0218C117.085 70.3136 115.813 69.4481 115.813 69.4481C115.813 69.4481 106.783 62.1473 108.113 59.8488C109.443 57.5506 109.443 57.5506 109.443 57.5506C109.443 57.5506 117.871 64.1102 122.694 67.7528C123.83 68.6111 125.203 69.2459 126.559 70.5483C128.984 72.1211 131.49 73.7768 133.66 75.2871C133.352 72.9013 133.32 71.2248 132.184 69.066C131.048 66.9072 125.508 62.937 125.254 53.2721C125.254 53.2721 123.982 56.032 123.514 57.5625C123.046 59.0931 125.286 64.9837 128.405 68.2407C126.267 67.2295 123.352 65.3986 120.238 63.3414C115.932 60.4682 113.777 57.5326 110.82 53.2997C109.924 52.0173 109.47 50.4679 109.766 49.0224C111.014 44.8779 116.018 41.512 116.018 41.512C112.79 42.037 109.167 45.7813 107.586 47.5828C99.562 48.0511 90.2248 51.0349 80.3996 48.0779C81.0869 46.0294 81.4956 44.056 82.4056 43.073C83.3156 42.09 87.5684 36.5804 85.636 35.6356C85.8508 36.7951 82.9571 39.8186 80.6671 41.5074C78.3772 43.1962 78.3871 48.1725 77.0525 49.0959C76.5711 49.429 73.9053 48.1195 71.0473 47.4633C67.3206 46.6078 61.0647 46.1073 57.0271 45.4833L60.4535 44.8656L56.1642 44.4205C56.1642 44.4205 54.349 44.2693 54.4491 44.9478C54.4594 45.0142 54.9713 45.7996 54.6984 46.4466C54.3194 47.3447 53.3404 47.0546 52.6699 47.8794C51.8341 48.9074 50.6457 50.8056 50.5628 51.4144C50.4495 52.2454 50.2619 54.0035 49.8521 55.0439C49.442 56.0842 46.213 57.3655 46.213 57.3655C46.213 57.3655 43.927 60.4323 43.5862 62.1947C43.2212 60.3456 44.284 58.1443 44.8721 57.2112C45.4601 56.2784 52.2108 44.8266 52.2108 44.8266C52.2108 44.8266 53.0438 43.4295 55.4763 43.3756C57.5464 43.0214 65.3825 41.0177 70.715 41.6605C70.715 41.6605 69.9513 40.2948 65.8953 39.3249H65.8961ZM49.6798 42.9224C49.9867 42.9507 51.0769 43.1395 52.0873 43.3205C51.7402 43.5473 51.3464 43.8649 51.2204 44.2C50.9794 44.8403 46.3881 52.3658 46.3881 52.3658C46.3881 52.3658 46.9958 51.265 47.1369 47.8857C47.2667 44.7846 47.4589 44.0355 49.6796 42.9224H49.6798ZM128.15 44.6038C129.242 43.6468 132.43 40.75 136.39 40.7639C141.615 40.7822 147.641 43.0619 152.052 47.8366C152.052 47.8366 147.282 44.4624 143.47 44.4729C143.47 44.4729 147.769 46.0577 149.665 48.4725C151.561 50.8874 154.898 53.7335 157.191 54.2625C157.191 54.2625 154.228 55.1229 148.124 51.5781C153.912 58.4355 160.488 58.4814 162.053 53.142C159.723 52.9367 157.232 51.7016 155.728 50.1271C157.106 50.6367 159.206 50.8677 159.516 49.7248C157.741 49.2759 151.182 42.3278 146.668 40.2931C142.955 38.6197 140.203 37.7978 137.826 37.6923C139.354 36.3409 141.116 36.0577 141.116 36.0577C132.397 35.7217 128.748 41.8322 128.748 41.8322C128.746 41.8103 128.744 41.7877 128.741 41.7646L128.839 41.2938C128.118 38.9588 124.376 33.8744 120.682 31.8912C116.561 29.6797 118.86 30.8201 102.796 28.8088C86.7328 26.7974 87.4683 23.9779 84.6773 20.9932C86.4046 28.3784 99.4782 30.0653 105.359 30.5897C108.663 30.8843 116.068 31.4923 120.036 34.0147C124.872 37.0886 128.041 41.4823 127.995 44.7493C128.043 44.7051 128.095 44.6566 128.151 44.6044L128.15 44.6038ZM111.845 77.1764C112.037 78.3499 112.171 79.5611 112.264 80.6484C114.019 81.9922 115.365 83.124 116.408 84.0723C116.396 83.8912 116.368 83.4717 116.334 82.8899C114.812 80.9516 113.146 78.8441 111.845 77.1764ZM128.675 73.3319C128.838 73.6251 129 73.9382 129.158 74.2713L134.03 78.886C133.973 78.1711 133.897 77.3307 133.798 76.4401C131.976 75.3581 129.986 74.1404 128.674 73.3319H128.675Z" fill="#CBAC14"/>
<path d="M5.45948 106.122C4.37436 106.122 3.34828 106.029 2.38122 105.843C1.41416 105.657 0.671916 105.445 0.154478 105.207V101.849H3.88079C3.88079 102.201 3.95991 102.455 4.11816 102.611C4.2764 102.771 4.56526 102.852 4.98474 102.852C5.33389 102.852 5.58507 102.798 5.73829 102.69C5.89151 102.582 5.96813 102.421 5.96813 102.207C5.96813 102.027 5.89528 101.871 5.7496 101.74C5.6014 101.61 5.34645 101.476 4.98474 101.341L3.52662 100.832C2.2707 100.357 1.36895 99.7985 0.821371 99.1555C0.27379 98.5099 0 97.6396 0 96.5444C0 95.2081 0.438316 94.1934 1.31495 93.5001C2.18907 92.8043 3.6497 92.4564 5.69685 92.4564C6.67897 92.4564 7.60333 92.5556 8.46991 92.7541C9.33399 92.9525 10.031 93.215 10.561 93.5415V96.5783H7.17004C7.17004 96.0132 6.82089 95.7306 6.1226 95.7306C5.78099 95.7306 5.53986 95.772 5.39919 95.8549C5.25853 95.9403 5.1882 96.0898 5.1882 96.3033C5.1882 96.4967 5.26983 96.6499 5.4331 96.763C5.59637 96.876 5.86514 96.9941 6.2394 97.1171L7.71636 97.6295C8.91451 98.0365 9.78737 98.564 10.335 99.212C10.8825 99.8626 11.1563 100.714 11.1563 101.767C11.1563 103.201 10.6728 104.286 9.70574 105.022C8.73868 105.755 7.32326 106.122 5.45948 106.122ZM26.2613 92.6938V96.7969H23.3488V95.4744H22.2599V103.104H23.4467V105.885H16.3295V103.104H17.5125V95.4744H16.4274V96.7969H13.5149V92.6938H26.2613ZM36.5359 92.6938L39.4032 103.104H40.0814V105.885H33.4351V103.104H34.4524L34.1811 101.748H31.8752L31.6039 103.104H32.6212V105.885H26.8227V103.104H27.5008L30.3643 92.6938H36.5359ZM32.9415 96.5783L32.2482 99.9505H33.8081L33.111 96.5783H32.9415ZM53.1027 105.885H42.6058V103.104H43.4535V95.4744H42.6058V92.6938H49.7645V95.4744H48.2009V103.104H49.7268V101.544H53.1027V105.885ZM66.158 105.885H55.6611V103.104H56.5088V95.4744H55.6611V92.6938H62.816V95.4744H61.2562V103.104H62.7821V101.544H66.158V105.885ZM75.1592 105.885H68.7163V103.104H69.5641V95.4744H68.7163V92.6938H75.1592V95.4744H74.3114V103.104H75.1592V105.885ZM84.198 106.122C82.1283 106.122 80.532 105.58 79.4092 104.494C78.2839 103.409 77.7213 101.675 77.7213 99.2911C77.7213 96.9049 78.2839 95.1692 79.4092 94.0841C80.532 92.999 82.1283 92.4564 84.198 92.4564C86.2653 92.4564 87.8615 92.999 88.9868 94.0841C90.1121 95.1692 90.6748 96.9049 90.6748 99.2911C90.6748 101.675 90.1121 103.409 88.9868 104.494C87.8615 105.58 86.2653 106.122 84.198 106.122ZM84.198 103.104C84.5823 103.104 84.87 103.002 85.0609 102.799C85.2543 102.595 85.351 102.279 85.351 101.849V96.7291C85.351 96.2995 85.2543 95.983 85.0609 95.7796C84.87 95.5761 84.5823 95.4744 84.198 95.4744C83.8137 95.4744 83.5249 95.5761 83.3315 95.7796C83.1406 95.983 83.0451 96.2995 83.0451 96.7291V101.849C83.0451 102.289 83.1406 102.608 83.3315 102.806C83.5249 103.005 83.8137 103.104 84.198 103.104ZM102.999 95.4744V92.6938H108.56V95.4744H107.713V105.885H102.95L97.9805 98.2399V103.104H98.7943V105.885H93.2331V103.104H94.0809V95.4744H93.2331V92.6938H99.3557L103.813 99.4946V95.4744H102.999ZM118.259 105.885V103.104H119.106V95.4744H118.259V92.6938H125.704C127.161 92.6938 128.273 93.0078 129.042 93.6357C129.81 94.2612 130.195 95.276 130.195 96.6801C130.195 98.0792 129.81 99.0927 129.042 99.7207C128.273 100.349 127.161 100.663 125.704 100.663H123.854V103.104H125.481V105.885H118.259ZM123.854 98.255H124.43C125.086 98.255 125.414 97.8933 125.414 97.1699V96.5595C125.414 96.1878 125.332 95.914 125.169 95.7381C125.005 95.5623 124.759 95.4744 124.43 95.4744H123.854V98.255ZM140.639 92.6938L143.506 103.104H144.184V105.885H137.538V103.104H138.555L138.284 101.748H135.978L135.707 103.104H136.724V105.885H130.926V103.104H131.604L134.467 92.6938H140.639ZM137.045 96.5783L136.351 99.9505H137.911L137.214 96.5783H137.045ZM151.965 95.4744V92.6938H157.628V95.4744H156.95L153.917 105.885H148.423L145.386 95.4744H144.708V92.6938H151.219V95.4744H150.337L151.509 101.156H151.679L152.847 95.4744H151.965ZM166.599 105.885H160.156V103.104H161.004V95.4744H160.156V92.6938H166.599V95.4744H165.751V103.104H166.599V105.885ZM179.025 95.4744V92.6938H184.586V95.4744H183.738V105.885H178.976L174.006 98.2399V103.104H174.82V105.885H169.259V103.104H170.107V95.4744H169.259V92.6938H175.382L179.839 99.4946V95.4744H179.025ZM200 99.1216V101.646H199.152V105.037C198.655 105.318 197.929 105.569 196.975 105.791C196.018 106.012 194.985 106.122 193.877 106.122C191.765 106.122 190.11 105.566 188.911 104.453C187.713 103.34 187.114 101.62 187.114 99.2911C187.114 96.9049 187.711 95.1692 188.904 94.0841C190.095 92.999 191.798 92.4564 194.013 92.4564C195.088 92.4564 196.094 92.5695 197.031 92.7955C197.97 93.0216 198.678 93.2765 199.152 93.5604V97.6107H194.914V96.8157C194.914 96.341 194.814 95.9981 194.616 95.7871C194.417 95.5786 194.103 95.4744 193.674 95.4744C193.244 95.4744 192.932 95.5786 192.736 95.7871C192.537 95.9981 192.438 96.341 192.438 96.8157V101.767C192.438 102.241 192.537 102.583 192.736 102.791C192.932 103 193.244 103.104 193.674 103.104C194.103 103.104 194.417 103 194.616 102.791C194.814 102.583 194.914 102.241 194.914 101.767V101.646H193.998V99.1216H200Z" fill="#FBFBFB"/>
</svg>
