<svg width="22" height="23" viewBox="0 0 22 23" fill="none" xmlns="http://www.w3.org/2000/svg">
<mask id="mask0_45_884" style="mask-type:alpha" maskUnits="userSpaceOnUse" x="0" y="0" width="22" height="23">
<rect y="0.200195" width="22" height="22" fill="#D9D9D9"/>
</mask>
<g mask="url(#mask0_45_884)">
<path d="M7.88366 20.8252L6.14199 17.8919L2.84199 17.1585L3.16283 13.7669L0.916992 11.2002L3.16283 8.63353L2.84199 5.24186L6.14199 4.50853L7.88366 1.5752L11.0003 2.90436L14.117 1.5752L15.8587 4.50853L19.1587 5.24186L18.8378 8.63353L21.0837 11.2002L18.8378 13.7669L19.1587 17.1585L15.8587 17.8919L14.117 20.8252L11.0003 19.496L7.88366 20.8252ZM10.0378 14.4544L15.217 9.2752L13.9337 7.94603L10.0378 11.8419L8.06699 9.91686L6.78366 11.2002L10.0378 14.4544Z" fill="#CBAC14"/>
</g>
</svg>
